# Blender 4.3.0
# www.blender.org
mtllib Tank.mtl
o Cube
v 2.128717 1.203154 1.043388
v 2.128717 0.227474 1.043388
v -1.597199 1.203154 1.043388
v -2.128717 0.227474 1.043388
v 2.128717 1.203154 -1.043388
v 2.128717 0.227474 -1.043388
v -1.597199 1.203154 -1.043388
v -2.128717 0.227474 -1.043388
v 2.128717 0.877928 1.043388
v 2.128717 0.552701 1.043388
v -2.128717 0.552701 -1.043388
v -1.923197 0.877928 -1.043388
v -1.923197 0.877928 1.043388
v -2.128717 0.552701 1.043388
v 2.128717 0.877928 -1.043388
v 2.128717 0.552701 -1.043388
vn -0.0000 1.0000 -0.0000
vn -0.7063 0.7079 -0.0000
vn -0.0000 -0.0000 -1.0000
vn -0.0000 -1.0000 -0.0000
vn -0.0000 -0.0000 1.0000
vn 1.0000 -0.0000 -0.0000
vn -1.0000 -0.0000 -0.0000
vn -0.8454 0.5342 -0.0000
vt 0.875000 0.500000
vt 0.625000 0.750000
vt 0.625000 0.500000
vt 0.541667 1.000000
vt 0.541667 0.750000
vt 0.625000 0.000000
vt 0.541667 0.250000
vt 0.541667 0.000000
vt 0.375000 0.500000
vt 0.125000 0.750000
vt 0.125000 0.500000
vt 0.541667 0.500000
vt 0.625000 0.250000
vt 0.458333 0.250000
vt 0.375000 0.250000
vt 0.458333 0.500000
vt 0.375000 0.750000
vt 0.458333 0.750000
vt 0.458333 0.000000
vt 0.375000 0.000000
vt 0.375000 1.000000
vt 0.458333 1.000000
vt 0.875000 0.750000
vt 0.625000 1.000000
s 0
usemtl Material
f 5/1/1 3/2/1 1/3/1
f 3/2/2 12/4/2 13/5/2
f 7/6/3 15/7/3 12/8/3
f 2/9/4 8/10/4 6/11/4
f 9/12/5 3/2/5 13/5/5
f 5/13/6 9/12/6 15/7/6
f 16/14/6 2/9/6 6/15/6
f 15/7/6 10/16/6 16/14/6
f 10/16/5 4/17/5 2/9/5
f 10/16/5 13/5/5 14/18/5
f 11/19/3 6/15/3 8/20/3
f 12/8/3 16/14/3 11/19/3
f 14/18/7 8/21/7 4/17/7
f 13/5/8 11/22/8 14/18/8
f 5/1/1 7/23/1 3/2/1
f 3/2/2 7/24/2 12/4/2
f 7/6/3 5/13/3 15/7/3
f 2/9/4 4/17/4 8/10/4
f 9/12/5 1/3/5 3/2/5
f 5/13/6 1/3/6 9/12/6
f 16/14/6 10/16/6 2/9/6
f 15/7/6 9/12/6 10/16/6
f 10/16/5 14/18/5 4/17/5
f 10/16/5 9/12/5 13/5/5
f 11/19/3 16/14/3 6/15/3
f 12/8/3 15/7/3 16/14/3
f 14/18/7 11/22/7 8/21/7
f 13/5/8 12/4/8 11/22/8
o Cube.001
v -2.104393 0.054862 -1.031682
v -2.104393 0.709345 -1.031682
v 2.104393 0.054862 -1.031682
v 2.104393 0.709345 -1.031682
v -2.104393 0.054862 -1.313390
v -2.104393 0.709345 -1.313390
v 2.104393 0.054862 -1.313390
v 2.104393 0.709345 -1.313390
v -2.190075 0.177764 -1.025947
v -2.190075 0.313990 -1.025947
v -2.190075 0.450216 -1.025947
v -2.190075 0.586442 -1.025947
v 2.190075 0.586442 -1.025947
v 2.190075 0.450216 -1.025947
v 2.190075 0.313990 -1.025947
v 2.190075 0.177764 -1.025947
v 2.190075 0.586442 -1.319125
v 2.190075 0.450216 -1.319125
v 2.190075 0.313990 -1.319125
v 2.190075 0.177764 -1.319125
v -2.190075 0.586442 -1.319125
v -2.190075 0.450216 -1.319125
v -2.190075 0.313990 -1.319125
v -2.190075 0.177764 -1.319125
vn -0.0000 0.0466 0.9989
vn 0.8203 0.5719 -0.0000
vn -0.0000 0.0466 -0.9989
vn -0.8203 0.5719 -0.0000
vn -0.0000 -1.0000 -0.0000
vn -0.0000 1.0000 -0.0000
vn -0.8203 -0.5719 -0.0000
vn -1.0000 -0.0000 -0.0000
vn -0.0000 -0.0466 -0.9989
vn -0.0000 -0.0000 -1.0000
vn 0.8203 -0.5719 -0.0000
vn 1.0000 -0.0000 -0.0000
vn -0.0000 -0.0466 0.9989
vn -0.0000 -0.0000 1.0000
vt 0.575000 0.250000
vt 0.625000 0.000000
vt 0.575000 0.000000
vt 0.575000 0.500000
vt 0.625000 0.250000
vt 0.575000 0.750000
vt 0.625000 0.500000
vt 0.625000 1.000000
vt 0.625000 0.750000
vt 0.125000 0.750000
vt 0.375000 0.500000
vt 0.125000 0.500000
vt 0.875000 0.500000
vt 0.375000 1.000000
vt 0.425000 0.750000
vt 0.375000 0.750000
vt 0.425000 1.000000
vt 0.475000 0.750000
vt 0.475000 1.000000
vt 0.525000 0.750000
vt 0.525000 1.000000
vt 0.425000 0.500000
vt 0.475000 0.500000
vt 0.525000 0.500000
vt 0.375000 0.250000
vt 0.425000 0.250000
vt 0.475000 0.250000
vt 0.525000 0.250000
vt 0.425000 0.000000
vt 0.375000 0.000000
vt 0.475000 0.000000
vt 0.525000 0.000000
vt 0.575000 1.000000
vt 0.875000 0.750000
s 0
f 29/25/9 18/26/9 28/27/9
f 33/28/10 20/29/10 29/25/10
f 37/30/11 24/31/11 33/28/11
f 37/30/12 18/32/12 22/33/12
f 17/34/13 23/35/13 19/36/13
f 22/33/14 20/37/14 24/31/14
f 17/38/15 40/39/15 21/40/15
f 25/41/16 39/42/16 40/39/16
f 26/43/16 38/44/16 39/42/16
f 27/45/16 37/30/16 38/44/16
f 21/40/17 36/46/17 23/35/17
f 40/39/18 35/47/18 36/46/18
f 39/42/18 34/48/18 35/47/18
f 38/44/18 33/28/18 34/48/18
f 19/49/19 36/46/19 32/50/19
f 36/46/20 31/51/20 32/50/20
f 35/47/20 30/52/20 31/51/20
f 34/48/20 29/25/20 30/52/20
f 19/49/21 25/53/21 17/54/21
f 32/50/22 26/55/22 25/53/22
f 31/51/22 27/56/22 26/55/22
f 30/52/22 28/27/22 27/56/22
f 29/25/9 20/29/9 18/26/9
f 33/28/10 24/31/10 20/29/10
f 37/30/11 22/33/11 24/31/11
f 37/30/12 28/57/12 18/32/12
f 17/34/13 21/40/13 23/35/13
f 22/33/14 18/58/14 20/37/14
f 17/38/15 25/41/15 40/39/15
f 25/41/16 26/43/16 39/42/16
f 26/43/16 27/45/16 38/44/16
f 27/45/16 28/57/16 37/30/16
f 21/40/17 40/39/17 36/46/17
f 40/39/18 39/42/18 35/47/18
f 39/42/18 38/44/18 34/48/18
f 38/44/18 37/30/18 33/28/18
f 19/49/19 23/35/19 36/46/19
f 36/46/20 35/47/20 31/51/20
f 35/47/20 34/48/20 30/52/20
f 34/48/20 33/28/20 29/25/20
f 19/49/21 32/50/21 25/53/21
f 32/50/22 31/51/22 26/55/22
f 31/51/22 30/52/22 27/56/22
f 30/52/22 29/25/22 28/27/22
o Cylinder
v 0.983357 1.063609 0.000000
v 0.816422 1.633382 0.000000
v 0.856467 1.063609 0.433600
v 0.711897 1.633382 0.357176
v 0.509797 1.063609 0.751018
v 0.426330 1.633382 0.618647
v 0.036238 1.063609 0.867201
v 0.056390 1.633382 0.709408
v -0.437322 1.063609 0.751018
v -0.101714 1.633382 0.631333
v -0.783991 1.063609 0.433600
v -0.401137 1.633382 0.357176
v -0.910881 1.063609 0.000000
v -0.505662 1.633382 0.000000
v -0.783991 1.063609 -0.433600
v -0.401137 1.633382 -0.357176
v -0.437322 1.063609 -0.751018
v -0.101714 1.633382 -0.631333
v 0.036238 1.063609 -0.867201
v 0.056390 1.633382 -0.709408
v 0.509797 1.063609 -0.751018
v 0.426330 1.633382 -0.618647
v 0.856467 1.063609 -0.433600
v 0.711897 1.633382 -0.357176
v 0.856467 1.633382 0.433600
v 0.983357 1.633382 0.000000
v 0.509797 1.633382 0.751018
v 0.036238 1.633382 0.867201
v -0.199038 1.633382 0.751018
v -0.545707 1.633382 0.433600
v -0.672597 1.633382 0.000000
v -0.545707 1.633382 -0.433600
v -0.199038 1.633382 -0.751018
v 0.036238 1.633382 -0.867201
v 0.509797 1.633382 -0.751018
v 0.856467 1.633382 -0.433600
v 0.711897 1.633382 0.357176
v 0.816422 1.633382 0.000000
v 0.426330 1.633382 0.618647
v 0.056390 1.633382 0.709408
v -0.101714 1.633382 0.631333
v -0.401137 1.633382 0.357176
v -0.505662 1.633382 0.000000
v -0.401137 1.633382 -0.357176
v -0.101714 1.633382 -0.631333
v 0.056390 1.633382 -0.709408
v 0.426330 1.633382 -0.618647
v 0.711897 1.633382 -0.357176
v 0.260948 1.737729 0.074950
v 0.282882 1.737729 0.000000
v 0.201025 1.737729 0.129818
v 0.123396 1.737729 0.148863
v 0.090219 1.737729 0.132480
v 0.027388 1.737729 0.074950
v 0.005454 1.737729 0.000000
v 0.027388 1.737729 -0.074950
v 0.090219 1.737729 -0.132480
v 0.123396 1.737729 -0.148863
v 0.201025 1.737729 -0.129818
v 0.260948 1.737729 -0.074950
vn 0.9597 -0.0000 0.2809
vn 0.6753 -0.0000 0.7375
vn 0.2383 -0.0000 0.9712
vn -0.2371 0.0992 0.9664
vn -0.6499 0.2718 0.7098
vn -0.8907 0.3725 0.2607
vn -0.8907 0.3725 -0.2607
vn -0.6499 0.2718 -0.7098
vn -0.2371 0.0992 -0.9664
vn 0.2383 -0.0000 -0.9712
vn -0.0000 1.0000 -0.0000
vn 0.6753 -0.0000 -0.7375
vn 0.9597 -0.0000 -0.2809
vn -0.0000 -1.0000 -0.0000
vn -0.1386 0.9787 0.1514
vn 0.1916 0.9799 -0.0561
vn 0.1347 0.9799 0.1471
vn -0.0852 0.9813 -0.1725
vn -0.1997 0.9781 0.0584
vn 0.0462 0.9811 0.1881
vn 0.0462 0.9811 -0.1881
vn -0.1997 0.9781 -0.0584
vn -0.0852 0.9813 0.1725
vn 0.1347 0.9799 -0.1471
vn 0.1916 0.9799 0.0561
vn -0.1386 0.9787 -0.1514
vn -0.4428 -0.0000 0.8966
vn -0.4428 -0.0000 -0.8966
vt 1.000000 1.000000
vt 0.916667 0.500000
vt 1.000000 0.500000
vt 0.916667 1.000000
vt 0.833333 0.500000
vt 0.833333 1.000000
vt 0.750000 0.500000
vt 0.666667 1.000000
vt 0.666667 0.500000
vt 0.583333 1.000000
vt 0.583333 0.500000
vt 0.500000 1.000000
vt 0.500000 0.500000
vt 0.416667 0.500000
vt 0.416667 1.000000
vt 0.333333 0.500000
vt 0.333333 1.000000
vt 0.250000 0.500000
vt 0.250000 1.000000
vt 0.166667 0.500000
vt 0.348849 0.085536
vt 0.424723 0.174974
vt 0.166667 1.000000
vt 0.083333 0.500000
vt 0.083333 1.000000
vt 0.000000 0.500000
vt 0.990000 0.250000
vt 0.630000 0.042154
vt 0.630000 0.457846
vt 0.250000 0.443983
vt 0.370000 0.457846
vt 0.250000 0.490000
vt 0.348849 0.417203
vt 0.457846 0.370000
vt 0.446330 0.238053
vt 0.421212 0.343442
vt 0.457846 0.130000
vt 0.490000 0.250000
vt 0.250000 0.058087
vt 0.370000 0.042154
vt 0.130000 0.042154
vt 0.250000 0.010000
vt 0.151151 0.085536
vt 0.042154 0.130000
vt 0.053670 0.238053
vt 0.075277 0.174974
vt 0.042154 0.370000
vt 0.010000 0.250000
vt 0.151151 0.417203
vt 0.078788 0.343442
vt 0.130000 0.457846
vt 0.750000 1.000000
vt 0.000000 1.000000
vt 0.750000 0.490000
vt 0.870000 0.457846
vt 0.957846 0.370000
vt 0.957846 0.130000
vt 0.870000 0.042154
vt 0.750000 0.010000
vt 0.542154 0.130000
vt 0.510000 0.250000
vt 0.542154 0.370000
s 0
f 66/59/23 43/60/23 41/61/23
f 65/62/24 45/63/24 43/60/24
f 67/64/25 47/65/25 45/63/25
f 47/65/26 69/66/26 49/67/26
f 49/67/27 70/68/27 51/69/27
f 51/69/28 71/70/28 53/71/28
f 71/70/29 55/72/29 53/71/29
f 72/73/30 57/74/30 55/72/30
f 73/75/31 59/76/31 57/74/31
f 74/77/32 61/78/32 59/76/32
f 52/79/33 81/80/33 82/79/33
f 75/81/34 63/82/34 61/78/34
f 76/83/35 41/84/35 63/82/35
f 47/85/36 55/86/36 63/87/36
f 42/88/33 65/89/33 66/90/33
f 44/91/33 67/92/33 65/89/33
f 48/93/33 67/92/33 46/94/33
f 48/93/33 69/95/33 68/96/33
f 52/79/33 69/95/33 50/80/33
f 54/97/33 70/98/33 52/79/33
f 54/97/33 72/99/33 71/100/33
f 56/101/33 73/102/33 72/99/33
f 60/103/33 73/102/33 58/104/33
f 60/103/33 75/105/33 74/106/33
f 64/107/33 75/105/33 62/108/33
f 42/88/33 76/109/33 64/107/33
f 82/79/37 93/80/37 94/79/37
f 42/88/33 88/107/33 78/88/33
f 46/94/33 77/91/33 79/94/33
f 60/103/33 85/104/33 86/103/33
f 54/97/33 82/79/33 83/97/33
f 48/93/33 79/94/33 80/93/33
f 62/108/33 86/103/33 87/108/33
f 56/101/33 83/97/33 84/101/33
f 50/80/33 80/93/33 81/80/33
f 64/107/33 87/108/33 88/107/33
f 44/91/33 78/88/33 77/91/33
f 58/104/33 84/101/33 85/104/33
f 99/108/33 95/97/33 91/94/33
f 88/107/38 90/88/38 78/88/38
f 77/91/39 91/94/39 79/94/39
f 85/104/40 98/103/40 86/103/40
f 83/97/41 94/79/41 95/97/41
f 79/94/42 92/93/42 80/93/42
f 87/108/43 98/103/43 99/108/43
f 83/97/44 96/101/44 84/101/44
f 81/80/45 92/93/45 93/80/45
f 88/107/46 99/108/46 100/107/46
f 77/91/47 90/88/47 89/91/47
f 84/101/48 97/104/48 85/104/48
f 66/59/23 65/62/23 43/60/23
f 65/62/24 67/64/24 45/63/24
f 67/64/25 68/110/25 47/65/25
f 47/65/49 68/110/49 69/66/49
f 49/67/27 69/66/27 70/68/27
f 51/69/28 70/68/28 71/70/28
f 71/70/29 72/73/29 55/72/29
f 72/73/30 73/75/30 57/74/30
f 73/75/50 74/77/50 59/76/50
f 74/77/32 75/81/32 61/78/32
f 52/79/33 50/80/33 81/80/33
f 75/81/34 76/83/34 63/82/34
f 76/83/35 66/111/35 41/84/35
f 63/87/36 41/112/36 43/113/36
f 43/113/36 45/114/36 47/85/36
f 47/85/36 49/115/36 51/116/36
f 51/116/36 53/117/36 55/86/36
f 55/86/36 57/118/36 59/119/36
f 59/119/36 61/120/36 63/87/36
f 63/87/36 43/113/36 47/85/36
f 47/85/36 51/116/36 55/86/36
f 55/86/36 59/119/36 63/87/36
f 42/88/33 44/91/33 65/89/33
f 44/91/33 46/94/33 67/92/33
f 48/93/33 68/96/33 67/92/33
f 48/93/33 50/80/33 69/95/33
f 52/79/33 70/98/33 69/95/33
f 54/97/33 71/100/33 70/98/33
f 54/97/33 56/101/33 72/99/33
f 56/101/33 58/104/33 73/102/33
f 60/103/33 74/106/33 73/102/33
f 60/103/33 62/108/33 75/105/33
f 64/107/33 76/109/33 75/105/33
f 42/88/33 66/90/33 76/109/33
f 82/79/37 81/80/37 93/80/37
f 42/88/33 64/107/33 88/107/33
f 46/94/33 44/91/33 77/91/33
f 60/103/33 58/104/33 85/104/33
f 54/97/33 52/79/33 82/79/33
f 48/93/33 46/94/33 79/94/33
f 62/108/33 60/103/33 86/103/33
f 56/101/33 54/97/33 83/97/33
f 50/80/33 48/93/33 80/93/33
f 64/107/33 62/108/33 87/108/33
f 44/91/33 42/88/33 78/88/33
f 58/104/33 56/101/33 84/101/33
f 91/94/33 89/91/33 90/88/33
f 90/88/33 100/107/33 99/108/33
f 99/108/33 98/103/33 97/104/33
f 97/104/33 96/101/33 95/97/33
f 95/97/33 94/79/33 93/80/33
f 93/80/33 92/93/33 91/94/33
f 91/94/33 90/88/33 99/108/33
f 99/108/33 97/104/33 95/97/33
f 95/97/33 93/80/33 91/94/33
f 88/107/38 100/107/38 90/88/38
f 77/91/39 89/91/39 91/94/39
f 85/104/40 97/104/40 98/103/40
f 83/97/41 82/79/41 94/79/41
f 79/94/42 91/94/42 92/93/42
f 87/108/43 86/103/43 98/103/43
f 83/97/44 95/97/44 96/101/44
f 81/80/45 80/93/45 92/93/45
f 88/107/46 87/108/46 99/108/46
f 77/91/47 78/88/47 90/88/47
f 84/101/48 96/101/48 97/104/48
o Cylinder.001
v -0.806967 1.302019 -0.000000
v -3.407496 1.302019 -0.000000
v -0.806967 1.317114 -0.056335
v -3.407496 1.317113 -0.056335
v -0.806967 1.358354 -0.097575
v -3.407496 1.358353 -0.097575
v -0.806967 1.414688 -0.112670
v -3.407496 1.414688 -0.112670
v -0.806967 1.471023 -0.097575
v -3.407496 1.471023 -0.097575
v -0.806967 1.512263 -0.056335
v -3.407496 1.512263 -0.056335
v -0.806967 1.527358 -0.000000
v -3.407496 1.527358 -0.000000
v -0.806967 1.512263 0.056335
v -3.407496 1.512263 0.056335
v -0.806967 1.471023 0.097575
v -3.407496 1.471023 0.097575
v -0.806967 1.414688 0.112670
v -3.407496 1.414688 0.112670
v -0.806967 1.358354 0.097575
v -3.407496 1.358353 0.097575
v -0.806967 1.317114 0.056335
v -3.407496 1.317113 0.056335
v -2.973138 1.269799 0.000000
v -3.339869 1.269799 0.000000
v -3.339869 1.289210 -0.072445
v -2.973138 1.289210 -0.072445
v -3.339869 1.342244 -0.125478
v -2.973138 1.342244 -0.125478
v -3.339869 1.414688 -0.144889
v -2.973138 1.414688 -0.144889
v -3.339869 1.487133 -0.125478
v -2.973138 1.487133 -0.125478
v -3.339869 1.540166 -0.072445
v -2.973138 1.540166 -0.072445
v -3.339869 1.559578 0.000000
v -2.973138 1.559578 0.000000
v -3.339869 1.540166 0.072445
v -2.973138 1.540166 0.072445
v -3.339869 1.487133 0.125478
v -2.973138 1.487133 0.125478
v -3.339869 1.414688 0.144889
v -2.973138 1.414688 0.144889
v -3.339869 1.342244 0.125478
v -2.973138 1.342244 0.125478
v -3.339869 1.289210 0.072445
v -2.973138 1.289210 0.072445
vn -0.4181 -0.8775 -0.2351
vn -0.4181 -0.6424 -0.6424
vn -0.4181 -0.2351 -0.8775
vn -0.4181 0.2351 -0.8775
vn -0.4181 0.6424 -0.6424
vn -0.4181 0.8775 -0.2351
vn -0.4181 0.8775 0.2351
vn -0.4181 0.6424 0.6424
vn -0.4181 0.2351 0.8775
vn -0.4181 -0.2351 0.8775
vn -1.0000 -0.0000 -0.0000
vn -0.4181 -0.6424 0.6424
vn -0.4181 -0.8775 0.2351
vn 1.0000 -0.0000 -0.0000
vn 0.0144 -0.9658 0.2588
vn -0.0000 -0.9659 0.2588
vn 0.0144 -0.7070 0.7070
vn -0.0000 -0.7071 0.7071
vn 0.0144 -0.2588 0.9658
vn -0.0000 -0.2588 0.9659
vn 0.0144 0.2588 0.9658
vn -0.0000 0.2588 0.9659
vn 0.0144 0.7070 0.7070
vn -0.0000 0.7071 0.7071
vn 0.0144 0.9658 0.2588
vn -0.0000 0.9659 0.2588
vn 0.0144 0.9658 -0.2588
vn -0.0000 0.9659 -0.2588
vn 0.0144 0.7070 -0.7070
vn -0.0000 0.7071 -0.7071
vn 0.0144 0.2588 -0.9658
vn -0.0000 0.2588 -0.9659
vn 0.0144 -0.2588 -0.9658
vn -0.0000 -0.2588 -0.9659
vn 0.0144 -0.7070 -0.7070
vn -0.0000 -0.7071 -0.7071
vn 0.0144 -0.9658 -0.2588
vn -0.0000 -0.9659 -0.2588
vt 1.000000 0.833333
vt 0.916667 1.000000
vt 0.916667 0.833333
vt 0.833333 1.000000
vt 0.833333 0.833333
vt 0.750000 1.000000
vt 0.750000 0.833333
vt 0.666667 1.000000
vt 0.666667 0.833333
vt 0.583333 1.000000
vt 0.583333 0.833333
vt 0.500000 1.000000
vt 0.500000 0.833333
vt 0.416667 0.833333
vt 0.416667 1.000000
vt 0.333333 0.833333
vt 0.333333 1.000000
vt 0.250000 0.833333
vt 0.250000 1.000000
vt 0.166667 0.833333
vt 0.042154 0.370000
vt 0.250000 0.010000
vt 0.457846 0.370000
vt 0.166667 1.000000
vt 0.083333 0.833333
vt 0.083333 1.000000
vt 0.000000 0.833333
vt 0.990000 0.250000
vt 0.630000 0.042154
vt 0.630000 0.457846
vt 0.083333 0.500000
vt 0.000000 0.666667
vt 0.000000 0.500000
vt 0.083333 0.666667
vt 0.166667 0.666667
vt 0.166667 0.500000
vt 0.250000 0.666667
vt 0.250000 0.500000
vt 0.333333 0.666667
vt 0.333333 0.500000
vt 0.416667 0.666667
vt 0.416667 0.500000
vt 0.500000 0.666667
vt 0.500000 0.500000
vt 0.583333 0.500000
vt 0.583333 0.666667
vt 0.666667 0.666667
vt 0.666667 0.500000
vt 0.750000 0.666667
vt 0.750000 0.500000
vt 0.833333 0.666667
vt 0.833333 0.500000
vt 0.916667 0.666667
vt 0.916667 0.500000
vt 1.000000 0.666667
vt 1.000000 0.500000
vt 1.000000 1.000000
vt 0.370000 0.457846
vt 0.250000 0.490000
vt 0.130000 0.457846
vt 0.010000 0.250000
vt 0.042154 0.130000
vt 0.130000 0.042154
vt 0.370000 0.042154
vt 0.457846 0.130000
vt 0.490000 0.250000
vt 0.000000 1.000000
vt 0.750000 0.490000
vt 0.870000 0.457846
vt 0.957846 0.370000
vt 0.957846 0.130000
vt 0.870000 0.042154
vt 0.750000 0.010000
vt 0.542154 0.130000
vt 0.510000 0.250000
vt 0.542154 0.370000
s 0
f 126/121/51 104/122/51 127/123/51
f 127/123/52 106/124/52 129/125/52
f 129/125/53 108/126/53 131/127/53
f 131/127/54 110/128/54 133/129/54
f 133/129/55 112/130/55 135/131/55
f 135/131/56 114/132/56 137/133/56
f 114/132/57 139/134/57 137/133/57
f 116/135/58 141/136/58 139/134/58
f 118/137/59 143/138/59 141/136/59
f 120/139/60 145/140/60 143/138/60
f 122/141/61 114/142/61 106/143/61
f 122/144/62 147/145/62 145/140/62
f 124/146/63 126/147/63 147/145/63
f 107/148/64 115/149/64 123/150/64
f 123/151/65 125/152/65 101/153/65
f 147/145/66 125/152/66 148/154/66
f 146/155/67 123/151/67 121/156/67
f 145/140/68 148/154/68 146/155/68
f 144/157/69 121/156/69 119/158/69
f 143/138/70 146/155/70 144/157/70
f 142/159/71 119/158/71 117/160/71
f 141/136/72 144/157/72 142/159/72
f 140/161/73 117/160/73 115/162/73
f 139/134/74 142/159/74 140/161/74
f 138/163/75 115/162/75 113/164/75
f 137/133/76 140/161/76 138/163/76
f 111/165/77 138/163/77 113/164/77
f 136/166/78 137/133/78 138/163/78
f 134/167/79 111/165/79 109/168/79
f 134/167/80 135/131/80 136/166/80
f 132/169/81 109/168/81 107/170/81
f 132/169/82 133/129/82 134/167/82
f 130/171/83 107/170/83 105/172/83
f 130/171/84 131/127/84 132/169/84
f 128/173/85 105/172/85 103/174/85
f 128/173/86 129/125/86 130/171/86
f 125/175/87 103/174/87 101/176/87
f 125/175/88 127/123/88 128/173/88
f 126/121/51 102/177/51 104/122/51
f 127/123/52 104/122/52 106/124/52
f 129/125/53 106/124/53 108/126/53
f 131/127/54 108/126/54 110/128/54
f 133/129/55 110/128/55 112/130/55
f 135/131/56 112/130/56 114/132/56
f 114/132/57 116/135/57 139/134/57
f 116/135/58 118/137/58 141/136/58
f 118/137/59 120/139/59 143/138/59
f 120/139/60 122/144/60 145/140/60
f 106/143/61 104/178/61 102/179/61
f 102/179/61 124/180/61 122/141/61
f 122/141/61 120/181/61 118/182/61
f 118/182/61 116/183/61 114/142/61
f 114/142/61 112/184/61 110/185/61
f 110/185/61 108/186/61 106/143/61
f 106/143/61 102/179/61 122/141/61
f 122/141/61 118/182/61 114/142/61
f 114/142/61 110/185/61 106/143/61
f 122/144/62 124/146/62 147/145/62
f 124/146/63 102/187/63 126/147/63
f 123/150/64 101/188/64 103/189/64
f 103/189/64 105/190/64 107/148/64
f 107/148/64 109/191/64 111/192/64
f 111/192/64 113/193/64 115/149/64
f 115/149/64 117/194/64 119/195/64
f 119/195/64 121/196/64 123/150/64
f 123/150/64 103/189/64 107/148/64
f 107/148/64 111/192/64 115/149/64
f 115/149/64 119/195/64 123/150/64
f 123/151/65 148/154/65 125/152/65
f 147/145/66 126/147/66 125/152/66
f 146/155/67 148/154/67 123/151/67
f 145/140/68 147/145/68 148/154/68
f 144/157/69 146/155/69 121/156/69
f 143/138/70 145/140/70 146/155/70
f 142/159/71 144/157/71 119/158/71
f 141/136/72 143/138/72 144/157/72
f 140/161/73 142/159/73 117/160/73
f 139/134/74 141/136/74 142/159/74
f 138/163/75 140/161/75 115/162/75
f 137/133/76 139/134/76 140/161/76
f 111/165/77 136/166/77 138/163/77
f 136/166/78 135/131/78 137/133/78
f 134/167/79 136/166/79 111/165/79
f 134/167/80 133/129/80 135/131/80
f 132/169/81 134/167/81 109/168/81
f 132/169/82 131/127/82 133/129/82
f 130/171/83 132/169/83 107/170/83
f 130/171/84 129/125/84 131/127/84
f 128/173/85 130/171/85 105/172/85
f 128/173/86 127/123/86 129/125/86
f 125/175/87 128/173/87 103/174/87
f 125/175/88 126/121/88 127/123/88
o Cube.002
v -0.923603 1.302782 -0.127374
v -0.923603 1.557529 -0.127374
v -0.668855 1.302782 -0.127374
v -0.668855 1.557529 -0.127374
v -0.923603 1.302782 0.127374
v -0.923603 1.557529 0.127374
v -0.668855 1.302782 0.127374
v -0.668855 1.557529 0.127374
vn -0.0000 -0.0000 -1.0000
vn 1.0000 -0.0000 -0.0000
vn -0.0000 -0.0000 1.0000
vn -1.0000 -0.0000 -0.0000
vn -0.0000 -1.0000 -0.0000
vn -0.0000 1.0000 -0.0000
vt 0.625000 0.000000
vt 0.375000 0.250000
vt 0.375000 0.000000
vt 0.625000 0.250000
vt 0.375000 0.500000
vt 0.625000 0.500000
vt 0.375000 0.750000
vt 0.625000 0.750000
vt 0.375000 1.000000
vt 0.125000 0.750000
vt 0.125000 0.500000
vt 0.875000 0.500000
vt 0.625000 1.000000
vt 0.875000 0.750000
s 0
f 150/197/89 151/198/89 149/199/89
f 152/200/90 155/201/90 151/198/90
f 156/202/91 153/203/91 155/201/91
f 154/204/92 149/205/92 153/203/92
f 155/201/93 149/206/93 151/207/93
f 152/208/94 154/204/94 156/202/94
f 150/197/89 152/200/89 151/198/89
f 152/200/90 156/202/90 155/201/90
f 156/202/91 154/204/91 153/203/91
f 154/204/92 150/209/92 149/205/92
f 155/201/93 153/203/93 149/206/93
f 152/208/94 150/210/94 154/204/94
o Cube.003
v -2.104393 0.054862 1.031682
v -2.104393 0.709345 1.031682
v 2.104393 0.054862 1.031682
v 2.104393 0.709345 1.031682
v -2.104393 0.054862 1.313390
v -2.104393 0.709345 1.313390
v 2.104393 0.054862 1.313390
v 2.104393 0.709345 1.313390
v -2.190075 0.177764 1.025947
v -2.190075 0.313990 1.025947
v -2.190075 0.450216 1.025947
v -2.190075 0.586442 1.025947
v 2.190075 0.586442 1.025947
v 2.190075 0.450216 1.025947
v 2.190075 0.313990 1.025947
v 2.190075 0.177764 1.025947
v 2.190075 0.586442 1.319125
v 2.190075 0.450216 1.319125
v 2.190075 0.313990 1.319125
v 2.190075 0.177764 1.319125
v -2.190075 0.586442 1.319125
v -2.190075 0.450216 1.319125
v -2.190075 0.313990 1.319125
v -2.190075 0.177764 1.319125
vn -0.0000 0.0466 -0.9989
vn 0.8203 0.5719 -0.0000
vn -0.0000 0.0466 0.9989
vn -0.8203 0.5719 -0.0000
vn -0.0000 -1.0000 -0.0000
vn -0.0000 1.0000 -0.0000
vn -0.8203 -0.5719 -0.0000
vn -1.0000 -0.0000 -0.0000
vn -0.0000 -0.0466 0.9989
vn -0.0000 -0.0000 1.0000
vn 0.8203 -0.5719 -0.0000
vn 1.0000 -0.0000 -0.0000
vn -0.0000 -0.0466 -0.9989
vn -0.0000 -0.0000 -1.0000
vt 0.625000 0.000000
vt 0.575000 0.250000
vt 0.575000 0.000000
vt 0.625000 0.250000
vt 0.575000 0.500000
vt 0.625000 0.500000
vt 0.575000 0.750000
vt 0.625000 1.000000
vt 0.575000 1.000000
vt 0.375000 0.500000
vt 0.125000 0.750000
vt 0.125000 0.500000
vt 0.875000 0.500000
vt 0.625000 0.750000
vt 0.425000 0.750000
vt 0.375000 1.000000
vt 0.375000 0.750000
vt 0.475000 0.750000
vt 0.425000 1.000000
vt 0.525000 0.750000
vt 0.475000 1.000000
vt 0.525000 1.000000
vt 0.425000 0.500000
vt 0.475000 0.500000
vt 0.525000 0.500000
vt 0.375000 0.250000
vt 0.475000 0.250000
vt 0.425000 0.250000
vt 0.525000 0.250000
vt 0.425000 0.000000
vt 0.375000 0.000000
vt 0.475000 0.000000
vt 0.525000 0.000000
vt 0.875000 0.750000
s 0
f 158/211/95 169/212/95 168/213/95
f 160/214/96 173/215/96 169/212/96
f 164/216/97 177/217/97 173/215/97
f 177/217/98 158/218/98 168/219/98
f 163/220/99 157/221/99 159/222/99
f 160/223/100 162/224/100 164/216/100
f 180/225/101 157/226/101 161/227/101
f 179/228/102 165/229/102 180/225/102
f 178/230/102 166/231/102 179/228/102
f 177/217/102 167/232/102 178/230/102
f 176/233/103 161/227/103 163/220/103
f 175/234/104 180/225/104 176/233/104
f 174/235/104 179/228/104 175/234/104
f 173/215/104 178/230/104 174/235/104
f 159/236/105 176/233/105 163/220/105
f 171/237/106 176/233/106 172/238/106
f 170/239/106 175/234/106 171/237/106
f 169/212/106 174/235/106 170/239/106
f 165/240/107 159/236/107 157/241/107
f 166/242/108 172/238/108 165/240/108
f 167/243/108 171/237/108 166/242/108
f 168/213/108 170/239/108 167/243/108
f 158/211/95 160/214/95 169/212/95
f 160/214/96 164/216/96 173/215/96
f 164/216/97 162/224/97 177/217/97
f 177/217/98 162/224/98 158/218/98
f 163/220/99 161/227/99 157/221/99
f 160/223/100 158/244/100 162/224/100
f 180/225/101 165/229/101 157/226/101
f 179/228/102 166/231/102 165/229/102
f 178/230/102 167/232/102 166/231/102
f 177/217/102 168/219/102 167/232/102
f 176/233/103 180/225/103 161/227/103
f 175/234/104 179/228/104 180/225/104
f 174/235/104 178/230/104 179/228/104
f 173/215/104 177/217/104 178/230/104
f 159/236/105 172/238/105 176/233/105
f 171/237/106 175/234/106 176/233/106
f 170/239/106 174/235/106 175/234/106
f 169/212/106 173/215/106 174/235/106
f 165/240/107 172/238/107 159/236/107
f 166/242/108 171/237/108 172/238/108
f 167/243/108 170/239/108 171/237/108
f 168/213/108 169/212/108 170/239/108
